{
  "asset": {
    "version": "2.0",
    "generator": "THREE.GLTFExporter"
  },
  "scenes": [
    {
      "name": "Scene",
      "nodes": [
        5
      ]
    }
  ],
  "scene": 0,
  "nodes": [
    {
      "name": "Material-material",
      "extras": {
        "name": "Material-material"
      },
      "mesh": 0
    },
    {
      "name": "Gnarpy_1",
      "extras": {
        "name": "Gnarpy"
      },
      "children": [
        0
      ]
    },
    {
      "matrix": [
        0.0038854592036589495,
        0.006813923917589182,
        -0.12595230006441802,
        0,
        -0.0017024100824108448,
        0.12600339991466833,
        0.006764171316592178,
        0,
        0.12612499993558196,
        0.0014908563165922453,
        0.003971440958722867,
        0,
        0.01860316,
        0.004633848,
        0.1435407,
        1
      ],
      "name": "Gnarpy",
      "extras": {
        "name": "Gnarpy"
      },
      "children": [
        1
      ]
    },
    {
      "name": "Collada_visual_scene_group",
      "extras": {
        "name": "Collada visual scene group"
      },
      "children": [
        2
      ]
    },
    {
      "matrix": [
        1.856074333190918,
        0,
        0,
        0,
        0,
        -1.856074333190918,
        0,
        0,
        0,
        0,
        -1.856074333190918,
        0,
        0,
        0,
        0,
        1
      ],
      "name": "Sketchfab_model",
      "extras": {
        "name": "Sketchfab_model"
      },
      "children": [
        3
      ]
    },
    {
      "name": "Sketchfab_Scene",
      "children": [
        4
      ]
    }
  ],
  "bufferViews": [
    {
      "buffer": 0,
      "byteOffset": 0,
      "byteLength": 18300,
      "target": 34962,
      "byteStride": 12
    },
    {
      "buffer": 0,
      "byteOffset": 18300,
      "byteLength": 18300,
      "target": 34962,
      "byteStride": 12
    },
    {
      "buffer": 0,
      "byteOffset": 36600,
      "byteLength": 12200,
      "target": 34962,
      "byteStride": 8
    },
    {
      "buffer": 0,
      "byteOffset": 48800,
      "byteLength": 7800,
      "target": 34963
    }
  ],
  "buffers": [
    {
      "byteLength": 56600,
      "uri": "data:application/octet-stream;base64,"
    }
  ],
  "accessors": [
    {
      "bufferView": 0,
      "componentType": 5126,
      "count": 1525,
      "max": [
        1,
        1,
        0.99998539686203
      ],
      "min": [
        -0.9997637271881104,
        -0.9960886836051941,
        -0.9999707937240601
      ],
      "type": "VEC3"
    },
    {
      "bufferView": 1,
      "componentType": 5126,
      "count": 1525,
      "max": [
        0.3022992014884949,
        0.8299070000648499,
        0.9692819714546204
      ],
      "min": [
        -4.068452835083008,
        -1.9036550521850586,
        -0.9276071190834045
      ],
      "type": "VEC3"
    },
    {
      "bufferView": 2,
      "componentType": 5126,
      "count": 1525,
      "max": [
        0.9784743189811707,
        1
      ],
      "min": [
        0,
        0
      ],
      "type": "VEC2"
    },
    {
      "bufferView": 3,
      "componentType": 5125,
      "count": 1950,
      "max": [
        1524
      ],
      "min": [
        0
      ],
      "type": "SCALAR"
    }
  ],
  "materials": [
    {
      "pbrMetallicRoughness": {
        "metallicFactor": 0,
        "roughnessFactor": 0,
        "metallicRoughnessTexture": {
          "index": 0,
          "channel": 0
        },
        "baseColorTexture": {
          "index": 1,
          "texCoord": 0
        }
      },
      "doubleSided": true,
      "name": "Material",
      "extensions": {
        "KHR_materials_specular": {
          "specularTexture": {
            "index": 2,
            "texCoord": 0
          },
          "specularFactor": 0,
          "specularColorFactor": [
            1,
            1,
            1
          ]
        }
      }
    }
  ],
  "textures": [
    {
      "sampler": 0,
      "source": 0,
      "name": "textures/Material_metallicRoughness.png"
    },
    {
      "sampler": 1,
      "source": 1,
      "name": "textures/Material_baseColor.png"
    },
    {
      "sampler": 2,
      "source": 2,
      "name": "textures/Material_specularf0.png"
    }
  ],
  "samplers": [
    {
      "magFilter": 9729,
      "minFilter": 9987,
      "wrapS": 10497,
      "wrapT": 10497
    },
    {
      "magFilter": 9729,
      "minFilter": 9987,
      "wrapS": 10497,
      "wrapT": 10497
    },
    {
      "magFilter": 9729,
      "minFilter": 9729,
      "wrapS": 33648,
      "wrapT": 33648
    }
  ],
  "images": [
    {
      "mimeType": "image/png",
      "uri": "data:image/png;base64,"
    },
    {
      "mimeType": "image/png",
      "uri": "data:image/png;base64,"
    },
    {
      "mimeType": "image/png",
      "uri": "data:image/png;base64,"
    }
  ],
  "meshes": [
    {
      "primitives": [
        {
          "mode": 4,
          "attributes": {
            "NORMAL": 0,
            "POSITION": 1,
            "TEXCOORD_0": 2
          },
          "indices": 3,
          "material": 0
        }
      ]
    }
  ],
  "extensionsUsed": [
    "KHR_materials_specular"
  ]
}